<svg width="52" height="5" viewBox="0 0 52 5" fill="none" xmlns="http://www.w3.org/2000/svg">

<!-- for named pages -->
<g id='wawe'>
<path d="M0 4C2.27042 4 2.92958 1 5.2 1C7.47042 1 8.12958 4 10.4 4C12.6704 4 13.3296 1 15.6 1C17.8704 1 18.5296 4 20.8 4C23.0704 4 23.7296 1 26 1C28.2704 1 28.9296 4 31.2 4C33.4704 4 34.1296 1 36.4 1C38.6704 1 39.3296 4 41.6 4C43.8704 4 44.5296 1 46.8 1C49.0704 1 49.7296 4 52 4" stroke="#111111"/>
</g>

<!-- contacts -->
<g id='facebook'>
<path d="M4.75 5.5H7.125L6.82812 7.875H4.75V15H1.66992V7.875H0V5.5H1.66992V3.9043C1.66992 2.86523 1.92969 2.08594 2.44922 1.56641C2.96875 1.02214 3.83464 0.75 5.04688 0.75H7.125V3.125H5.86328C5.39323 3.125 5.08398 3.19922 4.93555 3.34766C4.81185 3.49609 4.75 3.74349 4.75 4.08984V5.5Z" fill="#282828"/>
</g>

<g id='lkdin'>
<path d="M13.0996 0.75C13.4212 0.75 13.6934 0.861328 13.916 1.08398C14.1387 1.2819 14.25 1.54167 14.25 1.86328V13.7754C14.25 14.097 14.1387 14.3815 13.916 14.6289C13.6934 14.8763 13.4212 15 13.0996 15H1.22461C0.902995 15 0.61849 14.8763 0.371094 14.6289C0.123698 14.3815 0 14.097 0 13.7754V1.86328C0 1.54167 0.111328 1.2819 0.333984 1.08398C0.58138 0.861328 0.878255 0.75 1.22461 0.75H13.0996ZM4.41602 12.625V6.2793H2.375V12.625H4.41602ZM2.67188 5.01758C2.86979 5.21549 3.12956 5.31445 3.45117 5.31445C3.77279 5.31445 4.03255 5.21549 4.23047 5.01758C4.45312 4.79492 4.56445 4.53516 4.56445 4.23828C4.56445 3.91667 4.46549 3.6569 4.26758 3.45898C4.06966 3.23633 3.8099 3.125 3.48828 3.125C3.16667 3.125 2.89453 3.23633 2.67188 3.45898C2.47396 3.6569 2.375 3.91667 2.375 4.23828C2.375 4.53516 2.47396 4.79492 2.67188 5.01758ZM11.875 12.625V8.91406C11.875 7.9987 11.6523 7.30599 11.207 6.83594C10.7865 6.36589 10.2298 6.13086 9.53711 6.13086C8.79492 6.13086 8.17643 6.47721 7.68164 7.16992V6.2793H5.64062V12.625H7.68164V9.02539C7.68164 8.77799 7.70638 8.60482 7.75586 8.50586C7.95378 8.01107 8.30013 7.76367 8.79492 7.76367C9.48763 7.76367 9.83398 8.22135 9.83398 9.13672V12.625H11.875Z" fill="#282828"/>
</g>

<g id='twitter'>
<path d="M16.5938 2.11719C16.1719 2.77344 15.6094 3.35937 14.9062 3.875V4.29688C14.9062 6.75781 14.0156 8.99609 12.2344 11.0117C10.4766 13.0039 8.13281 14 5.20312 14C3.32812 14 1.59375 13.4844 0 12.4531C0.375 12.5 0.644531 12.5234 0.808594 12.5234C2.37891 12.5234 3.78516 12.0312 5.02734 11.0469C4.30078 11.0234 3.64453 10.8008 3.05859 10.3789C2.47266 9.93359 2.07422 9.37109 1.86328 8.69141C2.14453 8.73828 2.35547 8.76172 2.49609 8.76172C2.73047 8.76172 3.03516 8.71484 3.41016 8.62109C2.63672 8.45703 1.98047 8.07031 1.44141 7.46094C0.925781 6.82812 0.667969 6.10156 0.667969 5.28125V5.24609C1.18359 5.52734 1.69922 5.66797 2.21484 5.66797C1.20703 5.01172 0.703125 4.0625 0.703125 2.82031C0.703125 2.23437 0.855469 1.67187 1.16016 1.13281C2.96484 3.35937 5.29688 4.54297 8.15625 4.68359C8.10938 4.51953 8.08594 4.26172 8.08594 3.91016C8.08594 2.94922 8.41406 2.14063 9.07031 1.48438C9.72656 0.828125 10.5352 0.5 11.4961 0.5C12.457 0.5 13.2773 0.863281 13.957 1.58984C14.6602 1.47266 15.3867 1.19141 16.1367 0.746094C15.9023 1.56641 15.3984 2.19922 14.625 2.64453C15.3516 2.57422 16.0078 2.39844 16.5938 2.11719Z" fill="#282828"/>
</g>

<g id='youtube'>
<path d="M16.9004 3.07227C16.9668 4.26758 17 5.45182 17 6.625C17 7.79818 16.9668 8.98242 16.9004 10.1777C16.9004 10.9303 16.6569 11.5723 16.1699 12.1035C15.7051 12.6126 15.1296 12.8672 14.4434 12.8672C12.7389 12.9557 10.7578 13 8.5 13C6.24219 13 4.26107 12.9557 2.55664 12.8672C1.87044 12.8672 1.28385 12.6126 0.796875 12.1035C0.332031 11.5723 0.0996094 10.9303 0.0996094 10.1777C0.0332031 8.98242 0 7.79818 0 6.625C0 5.85026 0.0442708 4.66602 0.132812 3.07227C0.132812 2.31966 0.365234 1.6888 0.830078 1.17969C1.29492 0.648438 1.87044 0.382812 2.55664 0.382812C4.17253 0.294271 6.05404 0.25 8.20117 0.25H8.5H8.79883C10.946 0.25 12.8275 0.294271 14.4434 0.382812C15.1296 0.382812 15.7051 0.648438 16.1699 1.17969C16.6569 1.6888 16.9004 2.31966 16.9004 3.07227ZM6.87305 9.87891L11.6875 6.625L6.87305 3.33789V9.87891Z" fill="#282828"/>
</g>

</svg>
